<?xml version="1.0" encoding="UTF-8"?>
<svg data-bbox="13.102 11.6 121.755 117.226" viewBox="0 0 149.451 141.921" height="141.921" width="149.451" xmlns="http://www.w3.org/2000/svg" data-type="ugc">
    <g>
        <defs>
            <filter filterUnits="userSpaceOnUse" height="140.421" width="144.951" y="0" x="4.5" id="66a3c8cd-120e-4e96-9aea-d3409ce03c38">
                <feOffset dx="3"/>
                <feGaussianBlur result="blur" stdDeviation="3"/>
                <feFlood flood-opacity=".31"/>
                <feComposite in2="blur" operator="in"/>
                <feComposite in="SourceGraphic"/>
            </filter>
            <filter filterUnits="userSpaceOnUse" height="137.421" width="141.951" y="4.5" x="0" id="991ee78d-9daf-4b43-a8fe-b9dca5ee073d">
                <feOffset dy="3" dx="-3"/>
                <feGaussianBlur result="blur-2" stdDeviation="2.5"/>
                <feFlood flood-color="#ffffff"/>
                <feComposite in2="blur-2" operator="in"/>
                <feComposite in="SourceGraphic"/>
            </filter>
        </defs>
        <g>
            <g filter="url(#66a3c8cd-120e-4e96-9aea-d3409ce03c38)" transform="translate(.001 .003)">
                <path fill="#f3f3f3" d="m134.363 50.178-23.307 71.733c-1.707 5.253-7.348 8.127-12.601 6.42l-78.442-25.487c-5.253-1.707-8.127-7.348-6.42-12.6L36.9 18.51c1.706-5.253 7.348-8.128 12.6-6.42l78.443 25.487c5.252 1.706 8.127 7.348 6.42 12.6z"/>
            </g>
            <g filter="url(#991ee78d-9daf-4b43-a8fe-b9dca5ee073d)" transform="translate(.001 .003)">
                <path fill="#f3f3f3" d="m134.363 50.178-23.307 71.733c-1.707 5.253-7.348 8.127-12.601 6.42l-78.442-25.487c-5.253-1.707-8.127-7.348-6.42-12.6L36.9 18.51c1.706-5.253 7.348-8.128 12.6-6.42l78.443 25.487c5.252 1.706 8.127 7.348 6.42 12.6z"/>
            </g>
        </g>
        <path fill="#292929" d="M57.147 64.888a72.1 72.1 0 0 0-2.641-20.959 36.608 36.608 0 0 1-1.585-5.911c-.7-2.866-4.339-3.557-4.339-3.557s-1.127-.459-2.328-4.072c2.113-1.075 12.3-2.581 18.289-2.581.7 0 52.345 17.15 52.345 18.942-.391 3.478-52.7-11.239-53.4-6.582a7.952 7.952 0 0 0-.528 4.837q-.528 5.374 1.585 24.183c3.874 25.079.252 31.745-26.163 30.67-18.667-.358.067-20.638-.637-30.67 0-6.091 7.415-9.9 8.51-4.3S24.162 91.61 42.124 91.61c18.973-1.59 16.784-2.718 15.023-26.722Z"/>
        <path fill="#292929" d="m87.646 73.519.35-15.328A30.351 30.351 0 0 0 76.028 62.6q-5.389 3.429-5.389 4.129 0 .35.98.35l2.87-.21q.42 0 .42.21 0 .14-.42.42a35.557 35.557 0 0 1-4.059 1.54 19.884 19.884 0 0 1-4.689 1.26.5.5 0 0 1-.56-.56 15.51 15.51 0 0 1 1.365-5.354 15.008 15.008 0 0 1 5-6.194 39.571 39.571 0 0 1 9.589-5.144 29.334 29.334 0 0 1 10.569-2.345q3.29 0 3.29 2.87l-.28 4.619q-.14 2.8-.28 7.909l6.369-6.929q2.45-2.8 4.024-4.409t2.345-1.61q1.19 0 1.19 1.05 0 1.4-2.8 6.369a13.252 13.252 0 0 1-2.52.84l-9.1 10.359-1.12 18.547q0 1.82 1.4 1.82a5.152 5.152 0 0 0 2.345-.735q1.365-.735 5.074-3.185a.753.753 0 0 1 .42-.14.557.557 0 0 1 .63.63q0 .91-2.695 3.954a22.549 22.549 0 0 1-5.319 4.584 9.335 9.335 0 0 1-4.514 1.54 2.3 2.3 0 0 1-2.38-1.33q-.56-1.33-.56-6.369 0-.49.28-11.828-6.3 6.649-10.708 12.248-3.5 4.549-5.809 5.949a8.013 8.013 0 0 1-3.22 1.4q-1.12 0-1.12-1.61 0-2.38 2.555-5.774a17.585 17.585 0 0 1 7.174-5.424Z"/>
    </g>
</svg>
